<?xml version="1.0" encoding="utf-8" standalone="no"?>
<!DOCTYPE svg PUBLIC "-//W3C//DTD SVG 1.1//EN"
  "http://www.w3.org/Graphics/SVG/1.1/DTD/svg11.dtd">
<svg height="345.6pt" version="1.1" viewBox="0 0 460.8 345.6" width="460.8pt" xmlns="http://www.w3.org/2000/svg" xmlns:xlink="http://www.w3.org/1999/xlink">
 <metadata>
  <rdf:RDF xmlns:cc="http://creativecommons.org/ns#" xmlns:dc="http://purl.org/dc/elements/1.1/" xmlns:rdf="http://www.w3.org/1999/02/22-rdf-syntax-ns#">
   <cc:Work>
    <dc:type rdf:resource="http://purl.org/dc/dcmitype/StillImage"/>
    <dc:date>2022-01-03T13:03:28.879027</dc:date>
    <dc:format>image/svg+xml</dc:format>
    <dc:creator>
     <cc:Agent>
      <dc:title>Matplotlib v3.4.3, https://matplotlib.org/</dc:title>
     </cc:Agent>
    </dc:creator>
   </cc:Work>
  </rdf:RDF>
 </metadata>
 <defs>
  <style type="text/css">*{stroke-linecap:butt;stroke-linejoin:round;}</style>
 </defs>
 <g id="figure_1">
  <g id="patch_1">
   <path d="M 0 345.6 
L 460.8 345.6 
L 460.8 0 
L 0 0 
z
" style="fill:#ffffff;"/>
  </g>
  <g id="axes_1">
   <g id="patch_2">
    <path d="M 57.6 307.584 
L 414.72 307.584 
L 414.72 41.472 
L 57.6 41.472 
z
" style="fill:#ffffff;"/>
   </g>
   <g id="matplotlib.axis_1">
    <g id="xtick_1">
     <g id="line2d_1">
      <path clip-path="url(#p3e8e9676e5)" d="M 64.284064 307.584 
L 64.284064 41.472 
" style="fill:none;stroke:#b0b0b0;stroke-linecap:square;stroke-width:0.8;"/>
     </g>
     <g id="line2d_2">
      <defs>
       <path d="M 0 0 
L 0 3.5 
" id="m221ea3f1b0" style="stroke:#000000;stroke-width:0.8;"/>
      </defs>
      <g>
       <use style="stroke:#000000;stroke-width:0.8;" x="64.284064" xlink:href="#m221ea3f1b0" y="307.584"/>
      </g>
     </g>
     <g id="text_1">
      <!-- 5 -->
      <g transform="translate(61.102814 322.182437)scale(0.1 -0.1)">
       <defs>
        <path d="M 691 4666 
L 3169 4666 
L 3169 4134 
L 1269 4134 
L 1269 2991 
Q 1406 3038 1543 3061 
Q 1681 3084 1819 3084 
Q 2600 3084 3056 2656 
Q 3513 2228 3513 1497 
Q 3513 744 3044 326 
Q 2575 -91 1722 -91 
Q 1428 -91 1123 -41 
Q 819 9 494 109 
L 494 744 
Q 775 591 1075 516 
Q 1375 441 1709 441 
Q 2250 441 2565 725 
Q 2881 1009 2881 1497 
Q 2881 1984 2565 2268 
Q 2250 2553 1709 2553 
Q 1456 2553 1204 2497 
Q 953 2441 691 2322 
L 691 4666 
z
" id="DejaVuSans-35" transform="scale(0.015625)"/>
       </defs>
       <use xlink:href="#DejaVuSans-35"/>
      </g>
     </g>
    </g>
    <g id="xtick_2">
     <g id="line2d_3">
      <path clip-path="url(#p3e8e9676e5)" d="M 112.02738 307.584 
L 112.02738 41.472 
" style="fill:none;stroke:#b0b0b0;stroke-linecap:square;stroke-width:0.8;"/>
     </g>
     <g id="line2d_4">
      <g>
       <use style="stroke:#000000;stroke-width:0.8;" x="112.02738" xlink:href="#m221ea3f1b0" y="307.584"/>
      </g>
     </g>
     <g id="text_2">
      <!-- 6 -->
      <g transform="translate(108.84613 322.182437)scale(0.1 -0.1)">
       <defs>
        <path d="M 2113 2584 
Q 1688 2584 1439 2293 
Q 1191 2003 1191 1497 
Q 1191 994 1439 701 
Q 1688 409 2113 409 
Q 2538 409 2786 701 
Q 3034 994 3034 1497 
Q 3034 2003 2786 2293 
Q 2538 2584 2113 2584 
z
M 3366 4563 
L 3366 3988 
Q 3128 4100 2886 4159 
Q 2644 4219 2406 4219 
Q 1781 4219 1451 3797 
Q 1122 3375 1075 2522 
Q 1259 2794 1537 2939 
Q 1816 3084 2150 3084 
Q 2853 3084 3261 2657 
Q 3669 2231 3669 1497 
Q 3669 778 3244 343 
Q 2819 -91 2113 -91 
Q 1303 -91 875 529 
Q 447 1150 447 2328 
Q 447 3434 972 4092 
Q 1497 4750 2381 4750 
Q 2619 4750 2861 4703 
Q 3103 4656 3366 4563 
z
" id="DejaVuSans-36" transform="scale(0.015625)"/>
       </defs>
       <use xlink:href="#DejaVuSans-36"/>
      </g>
     </g>
    </g>
    <g id="xtick_3">
     <g id="line2d_5">
      <path clip-path="url(#p3e8e9676e5)" d="M 159.770695 307.584 
L 159.770695 41.472 
" style="fill:none;stroke:#b0b0b0;stroke-linecap:square;stroke-width:0.8;"/>
     </g>
     <g id="line2d_6">
      <g>
       <use style="stroke:#000000;stroke-width:0.8;" x="159.770695" xlink:href="#m221ea3f1b0" y="307.584"/>
      </g>
     </g>
     <g id="text_3">
      <!-- 7 -->
      <g transform="translate(156.589445 322.182437)scale(0.1 -0.1)">
       <defs>
        <path d="M 525 4666 
L 3525 4666 
L 3525 4397 
L 1831 0 
L 1172 0 
L 2766 4134 
L 525 4134 
L 525 4666 
z
" id="DejaVuSans-37" transform="scale(0.015625)"/>
       </defs>
       <use xlink:href="#DejaVuSans-37"/>
      </g>
     </g>
    </g>
    <g id="xtick_4">
     <g id="line2d_7">
      <path clip-path="url(#p3e8e9676e5)" d="M 207.514011 307.584 
L 207.514011 41.472 
" style="fill:none;stroke:#b0b0b0;stroke-linecap:square;stroke-width:0.8;"/>
     </g>
     <g id="line2d_8">
      <g>
       <use style="stroke:#000000;stroke-width:0.8;" x="207.514011" xlink:href="#m221ea3f1b0" y="307.584"/>
      </g>
     </g>
     <g id="text_4">
      <!-- 8 -->
      <g transform="translate(204.332761 322.182437)scale(0.1 -0.1)">
       <defs>
        <path d="M 2034 2216 
Q 1584 2216 1326 1975 
Q 1069 1734 1069 1313 
Q 1069 891 1326 650 
Q 1584 409 2034 409 
Q 2484 409 2743 651 
Q 3003 894 3003 1313 
Q 3003 1734 2745 1975 
Q 2488 2216 2034 2216 
z
M 1403 2484 
Q 997 2584 770 2862 
Q 544 3141 544 3541 
Q 544 4100 942 4425 
Q 1341 4750 2034 4750 
Q 2731 4750 3128 4425 
Q 3525 4100 3525 3541 
Q 3525 3141 3298 2862 
Q 3072 2584 2669 2484 
Q 3125 2378 3379 2068 
Q 3634 1759 3634 1313 
Q 3634 634 3220 271 
Q 2806 -91 2034 -91 
Q 1263 -91 848 271 
Q 434 634 434 1313 
Q 434 1759 690 2068 
Q 947 2378 1403 2484 
z
M 1172 3481 
Q 1172 3119 1398 2916 
Q 1625 2713 2034 2713 
Q 2441 2713 2670 2916 
Q 2900 3119 2900 3481 
Q 2900 3844 2670 4047 
Q 2441 4250 2034 4250 
Q 1625 4250 1398 4047 
Q 1172 3844 1172 3481 
z
" id="DejaVuSans-38" transform="scale(0.015625)"/>
       </defs>
       <use xlink:href="#DejaVuSans-38"/>
      </g>
     </g>
    </g>
    <g id="xtick_5">
     <g id="line2d_9">
      <path clip-path="url(#p3e8e9676e5)" d="M 255.257326 307.584 
L 255.257326 41.472 
" style="fill:none;stroke:#b0b0b0;stroke-linecap:square;stroke-width:0.8;"/>
     </g>
     <g id="line2d_10">
      <g>
       <use style="stroke:#000000;stroke-width:0.8;" x="255.257326" xlink:href="#m221ea3f1b0" y="307.584"/>
      </g>
     </g>
     <g id="text_5">
      <!-- 9 -->
      <g transform="translate(252.076076 322.182437)scale(0.1 -0.1)">
       <defs>
        <path d="M 703 97 
L 703 672 
Q 941 559 1184 500 
Q 1428 441 1663 441 
Q 2288 441 2617 861 
Q 2947 1281 2994 2138 
Q 2813 1869 2534 1725 
Q 2256 1581 1919 1581 
Q 1219 1581 811 2004 
Q 403 2428 403 3163 
Q 403 3881 828 4315 
Q 1253 4750 1959 4750 
Q 2769 4750 3195 4129 
Q 3622 3509 3622 2328 
Q 3622 1225 3098 567 
Q 2575 -91 1691 -91 
Q 1453 -91 1209 -44 
Q 966 3 703 97 
z
M 1959 2075 
Q 2384 2075 2632 2365 
Q 2881 2656 2881 3163 
Q 2881 3666 2632 3958 
Q 2384 4250 1959 4250 
Q 1534 4250 1286 3958 
Q 1038 3666 1038 3163 
Q 1038 2656 1286 2365 
Q 1534 2075 1959 2075 
z
" id="DejaVuSans-39" transform="scale(0.015625)"/>
       </defs>
       <use xlink:href="#DejaVuSans-39"/>
      </g>
     </g>
    </g>
    <g id="xtick_6">
     <g id="line2d_11">
      <path clip-path="url(#p3e8e9676e5)" d="M 303.000642 307.584 
L 303.000642 41.472 
" style="fill:none;stroke:#b0b0b0;stroke-linecap:square;stroke-width:0.8;"/>
     </g>
     <g id="line2d_12">
      <g>
       <use style="stroke:#000000;stroke-width:0.8;" x="303.000642" xlink:href="#m221ea3f1b0" y="307.584"/>
      </g>
     </g>
     <g id="text_6">
      <!-- 10 -->
      <g transform="translate(296.638142 322.182437)scale(0.1 -0.1)">
       <defs>
        <path d="M 794 531 
L 1825 531 
L 1825 4091 
L 703 3866 
L 703 4441 
L 1819 4666 
L 2450 4666 
L 2450 531 
L 3481 531 
L 3481 0 
L 794 0 
L 794 531 
z
" id="DejaVuSans-31" transform="scale(0.015625)"/>
        <path d="M 2034 4250 
Q 1547 4250 1301 3770 
Q 1056 3291 1056 2328 
Q 1056 1369 1301 889 
Q 1547 409 2034 409 
Q 2525 409 2770 889 
Q 3016 1369 3016 2328 
Q 3016 3291 2770 3770 
Q 2525 4250 2034 4250 
z
M 2034 4750 
Q 2819 4750 3233 4129 
Q 3647 3509 3647 2328 
Q 3647 1150 3233 529 
Q 2819 -91 2034 -91 
Q 1250 -91 836 529 
Q 422 1150 422 2328 
Q 422 3509 836 4129 
Q 1250 4750 2034 4750 
z
" id="DejaVuSans-30" transform="scale(0.015625)"/>
       </defs>
       <use xlink:href="#DejaVuSans-31"/>
       <use x="63.623047" xlink:href="#DejaVuSans-30"/>
      </g>
     </g>
    </g>
    <g id="xtick_7">
     <g id="line2d_13">
      <path clip-path="url(#p3e8e9676e5)" d="M 350.743957 307.584 
L 350.743957 41.472 
" style="fill:none;stroke:#b0b0b0;stroke-linecap:square;stroke-width:0.8;"/>
     </g>
     <g id="line2d_14">
      <g>
       <use style="stroke:#000000;stroke-width:0.8;" x="350.743957" xlink:href="#m221ea3f1b0" y="307.584"/>
      </g>
     </g>
     <g id="text_7">
      <!-- 11 -->
      <g transform="translate(344.381457 322.182437)scale(0.1 -0.1)">
       <use xlink:href="#DejaVuSans-31"/>
       <use x="63.623047" xlink:href="#DejaVuSans-31"/>
      </g>
     </g>
    </g>
    <g id="xtick_8">
     <g id="line2d_15">
      <path clip-path="url(#p3e8e9676e5)" d="M 398.487273 307.584 
L 398.487273 41.472 
" style="fill:none;stroke:#b0b0b0;stroke-linecap:square;stroke-width:0.8;"/>
     </g>
     <g id="line2d_16">
      <g>
       <use style="stroke:#000000;stroke-width:0.8;" x="398.487273" xlink:href="#m221ea3f1b0" y="307.584"/>
      </g>
     </g>
     <g id="text_8">
      <!-- 12 -->
      <g transform="translate(392.124773 322.182437)scale(0.1 -0.1)">
       <defs>
        <path d="M 1228 531 
L 3431 531 
L 3431 0 
L 469 0 
L 469 531 
Q 828 903 1448 1529 
Q 2069 2156 2228 2338 
Q 2531 2678 2651 2914 
Q 2772 3150 2772 3378 
Q 2772 3750 2511 3984 
Q 2250 4219 1831 4219 
Q 1534 4219 1204 4116 
Q 875 4013 500 3803 
L 500 4441 
Q 881 4594 1212 4672 
Q 1544 4750 1819 4750 
Q 2544 4750 2975 4387 
Q 3406 4025 3406 3419 
Q 3406 3131 3298 2873 
Q 3191 2616 2906 2266 
Q 2828 2175 2409 1742 
Q 1991 1309 1228 531 
z
" id="DejaVuSans-32" transform="scale(0.015625)"/>
       </defs>
       <use xlink:href="#DejaVuSans-31"/>
       <use x="63.623047" xlink:href="#DejaVuSans-32"/>
      </g>
     </g>
    </g>
    <g id="text_9">
     <!-- Frequency [Ghz] -->
     <g transform="translate(195.1725 335.860562)scale(0.1 -0.1)">
      <defs>
       <path d="M 628 4666 
L 3309 4666 
L 3309 4134 
L 1259 4134 
L 1259 2759 
L 3109 2759 
L 3109 2228 
L 1259 2228 
L 1259 0 
L 628 0 
L 628 4666 
z
" id="DejaVuSans-46" transform="scale(0.015625)"/>
       <path d="M 2631 2963 
Q 2534 3019 2420 3045 
Q 2306 3072 2169 3072 
Q 1681 3072 1420 2755 
Q 1159 2438 1159 1844 
L 1159 0 
L 581 0 
L 581 3500 
L 1159 3500 
L 1159 2956 
Q 1341 3275 1631 3429 
Q 1922 3584 2338 3584 
Q 2397 3584 2469 3576 
Q 2541 3569 2628 3553 
L 2631 2963 
z
" id="DejaVuSans-72" transform="scale(0.015625)"/>
       <path d="M 3597 1894 
L 3597 1613 
L 953 1613 
Q 991 1019 1311 708 
Q 1631 397 2203 397 
Q 2534 397 2845 478 
Q 3156 559 3463 722 
L 3463 178 
Q 3153 47 2828 -22 
Q 2503 -91 2169 -91 
Q 1331 -91 842 396 
Q 353 884 353 1716 
Q 353 2575 817 3079 
Q 1281 3584 2069 3584 
Q 2775 3584 3186 3129 
Q 3597 2675 3597 1894 
z
M 3022 2063 
Q 3016 2534 2758 2815 
Q 2500 3097 2075 3097 
Q 1594 3097 1305 2825 
Q 1016 2553 972 2059 
L 3022 2063 
z
" id="DejaVuSans-65" transform="scale(0.015625)"/>
       <path d="M 947 1747 
Q 947 1113 1208 752 
Q 1469 391 1925 391 
Q 2381 391 2643 752 
Q 2906 1113 2906 1747 
Q 2906 2381 2643 2742 
Q 2381 3103 1925 3103 
Q 1469 3103 1208 2742 
Q 947 2381 947 1747 
z
M 2906 525 
Q 2725 213 2448 61 
Q 2172 -91 1784 -91 
Q 1150 -91 751 415 
Q 353 922 353 1747 
Q 353 2572 751 3078 
Q 1150 3584 1784 3584 
Q 2172 3584 2448 3432 
Q 2725 3281 2906 2969 
L 2906 3500 
L 3481 3500 
L 3481 -1331 
L 2906 -1331 
L 2906 525 
z
" id="DejaVuSans-71" transform="scale(0.015625)"/>
       <path d="M 544 1381 
L 544 3500 
L 1119 3500 
L 1119 1403 
Q 1119 906 1312 657 
Q 1506 409 1894 409 
Q 2359 409 2629 706 
Q 2900 1003 2900 1516 
L 2900 3500 
L 3475 3500 
L 3475 0 
L 2900 0 
L 2900 538 
Q 2691 219 2414 64 
Q 2138 -91 1772 -91 
Q 1169 -91 856 284 
Q 544 659 544 1381 
z
M 1991 3584 
L 1991 3584 
z
" id="DejaVuSans-75" transform="scale(0.015625)"/>
       <path d="M 3513 2113 
L 3513 0 
L 2938 0 
L 2938 2094 
Q 2938 2591 2744 2837 
Q 2550 3084 2163 3084 
Q 1697 3084 1428 2787 
Q 1159 2491 1159 1978 
L 1159 0 
L 581 0 
L 581 3500 
L 1159 3500 
L 1159 2956 
Q 1366 3272 1645 3428 
Q 1925 3584 2291 3584 
Q 2894 3584 3203 3211 
Q 3513 2838 3513 2113 
z
" id="DejaVuSans-6e" transform="scale(0.015625)"/>
       <path d="M 3122 3366 
L 3122 2828 
Q 2878 2963 2633 3030 
Q 2388 3097 2138 3097 
Q 1578 3097 1268 2742 
Q 959 2388 959 1747 
Q 959 1106 1268 751 
Q 1578 397 2138 397 
Q 2388 397 2633 464 
Q 2878 531 3122 666 
L 3122 134 
Q 2881 22 2623 -34 
Q 2366 -91 2075 -91 
Q 1284 -91 818 406 
Q 353 903 353 1747 
Q 353 2603 823 3093 
Q 1294 3584 2113 3584 
Q 2378 3584 2631 3529 
Q 2884 3475 3122 3366 
z
" id="DejaVuSans-63" transform="scale(0.015625)"/>
       <path d="M 2059 -325 
Q 1816 -950 1584 -1140 
Q 1353 -1331 966 -1331 
L 506 -1331 
L 506 -850 
L 844 -850 
Q 1081 -850 1212 -737 
Q 1344 -625 1503 -206 
L 1606 56 
L 191 3500 
L 800 3500 
L 1894 763 
L 2988 3500 
L 3597 3500 
L 2059 -325 
z
" id="DejaVuSans-79" transform="scale(0.015625)"/>
       <path id="DejaVuSans-20" transform="scale(0.015625)"/>
       <path d="M 550 4863 
L 1875 4863 
L 1875 4416 
L 1125 4416 
L 1125 -397 
L 1875 -397 
L 1875 -844 
L 550 -844 
L 550 4863 
z
" id="DejaVuSans-5b" transform="scale(0.015625)"/>
       <path d="M 3809 666 
L 3809 1919 
L 2778 1919 
L 2778 2438 
L 4434 2438 
L 4434 434 
Q 4069 175 3628 42 
Q 3188 -91 2688 -91 
Q 1594 -91 976 548 
Q 359 1188 359 2328 
Q 359 3472 976 4111 
Q 1594 4750 2688 4750 
Q 3144 4750 3555 4637 
Q 3966 4525 4313 4306 
L 4313 3634 
Q 3963 3931 3569 4081 
Q 3175 4231 2741 4231 
Q 1884 4231 1454 3753 
Q 1025 3275 1025 2328 
Q 1025 1384 1454 906 
Q 1884 428 2741 428 
Q 3075 428 3337 486 
Q 3600 544 3809 666 
z
" id="DejaVuSans-47" transform="scale(0.015625)"/>
       <path d="M 3513 2113 
L 3513 0 
L 2938 0 
L 2938 2094 
Q 2938 2591 2744 2837 
Q 2550 3084 2163 3084 
Q 1697 3084 1428 2787 
Q 1159 2491 1159 1978 
L 1159 0 
L 581 0 
L 581 4863 
L 1159 4863 
L 1159 2956 
Q 1366 3272 1645 3428 
Q 1925 3584 2291 3584 
Q 2894 3584 3203 3211 
Q 3513 2838 3513 2113 
z
" id="DejaVuSans-68" transform="scale(0.015625)"/>
       <path d="M 353 3500 
L 3084 3500 
L 3084 2975 
L 922 459 
L 3084 459 
L 3084 0 
L 275 0 
L 275 525 
L 2438 3041 
L 353 3041 
L 353 3500 
z
" id="DejaVuSans-7a" transform="scale(0.015625)"/>
       <path d="M 1947 4863 
L 1947 -844 
L 622 -844 
L 622 -397 
L 1369 -397 
L 1369 4416 
L 622 4416 
L 622 4863 
L 1947 4863 
z
" id="DejaVuSans-5d" transform="scale(0.015625)"/>
      </defs>
      <use xlink:href="#DejaVuSans-46"/>
      <use x="50.269531" xlink:href="#DejaVuSans-72"/>
      <use x="89.132812" xlink:href="#DejaVuSans-65"/>
      <use x="150.65625" xlink:href="#DejaVuSans-71"/>
      <use x="214.132812" xlink:href="#DejaVuSans-75"/>
      <use x="277.511719" xlink:href="#DejaVuSans-65"/>
      <use x="339.035156" xlink:href="#DejaVuSans-6e"/>
      <use x="402.414062" xlink:href="#DejaVuSans-63"/>
      <use x="457.394531" xlink:href="#DejaVuSans-79"/>
      <use x="516.574219" xlink:href="#DejaVuSans-20"/>
      <use x="548.361328" xlink:href="#DejaVuSans-5b"/>
      <use x="587.375" xlink:href="#DejaVuSans-47"/>
      <use x="664.865234" xlink:href="#DejaVuSans-68"/>
      <use x="728.244141" xlink:href="#DejaVuSans-7a"/>
      <use x="780.734375" xlink:href="#DejaVuSans-5d"/>
     </g>
    </g>
   </g>
   <g id="matplotlib.axis_2">
    <g id="ytick_1">
     <g id="line2d_17">
      <path clip-path="url(#p3e8e9676e5)" d="M 57.6 276.524656 
L 414.72 276.524656 
" style="fill:none;stroke:#b0b0b0;stroke-linecap:square;stroke-width:0.8;"/>
     </g>
     <g id="line2d_18">
      <defs>
       <path d="M 0 0 
L -3.5 0 
" id="md94259ba1b" style="stroke:#000000;stroke-width:0.8;"/>
      </defs>
      <g>
       <use style="stroke:#000000;stroke-width:0.8;" x="57.6" xlink:href="#md94259ba1b" y="276.524656"/>
      </g>
     </g>
     <g id="text_10">
      <!-- −80 -->
      <g transform="translate(29.495313 280.323875)scale(0.1 -0.1)">
       <defs>
        <path d="M 678 2272 
L 4684 2272 
L 4684 1741 
L 678 1741 
L 678 2272 
z
" id="DejaVuSans-2212" transform="scale(0.015625)"/>
       </defs>
       <use xlink:href="#DejaVuSans-2212"/>
       <use x="83.789062" xlink:href="#DejaVuSans-38"/>
       <use x="147.412109" xlink:href="#DejaVuSans-30"/>
      </g>
     </g>
    </g>
    <g id="ytick_2">
     <g id="line2d_19">
      <path clip-path="url(#p3e8e9676e5)" d="M 57.6 220.779436 
L 414.72 220.779436 
" style="fill:none;stroke:#b0b0b0;stroke-linecap:square;stroke-width:0.8;"/>
     </g>
     <g id="line2d_20">
      <g>
       <use style="stroke:#000000;stroke-width:0.8;" x="57.6" xlink:href="#md94259ba1b" y="220.779436"/>
      </g>
     </g>
     <g id="text_11">
      <!-- −60 -->
      <g transform="translate(29.495313 224.578655)scale(0.1 -0.1)">
       <use xlink:href="#DejaVuSans-2212"/>
       <use x="83.789062" xlink:href="#DejaVuSans-36"/>
       <use x="147.412109" xlink:href="#DejaVuSans-30"/>
      </g>
     </g>
    </g>
    <g id="ytick_3">
     <g id="line2d_21">
      <path clip-path="url(#p3e8e9676e5)" d="M 57.6 165.034217 
L 414.72 165.034217 
" style="fill:none;stroke:#b0b0b0;stroke-linecap:square;stroke-width:0.8;"/>
     </g>
     <g id="line2d_22">
      <g>
       <use style="stroke:#000000;stroke-width:0.8;" x="57.6" xlink:href="#md94259ba1b" y="165.034217"/>
      </g>
     </g>
     <g id="text_12">
      <!-- −40 -->
      <g transform="translate(29.495313 168.833436)scale(0.1 -0.1)">
       <defs>
        <path d="M 2419 4116 
L 825 1625 
L 2419 1625 
L 2419 4116 
z
M 2253 4666 
L 3047 4666 
L 3047 1625 
L 3713 1625 
L 3713 1100 
L 3047 1100 
L 3047 0 
L 2419 0 
L 2419 1100 
L 313 1100 
L 313 1709 
L 2253 4666 
z
" id="DejaVuSans-34" transform="scale(0.015625)"/>
       </defs>
       <use xlink:href="#DejaVuSans-2212"/>
       <use x="83.789062" xlink:href="#DejaVuSans-34"/>
       <use x="147.412109" xlink:href="#DejaVuSans-30"/>
      </g>
     </g>
    </g>
    <g id="ytick_4">
     <g id="line2d_23">
      <path clip-path="url(#p3e8e9676e5)" d="M 57.6 109.288997 
L 414.72 109.288997 
" style="fill:none;stroke:#b0b0b0;stroke-linecap:square;stroke-width:0.8;"/>
     </g>
     <g id="line2d_24">
      <g>
       <use style="stroke:#000000;stroke-width:0.8;" x="57.6" xlink:href="#md94259ba1b" y="109.288997"/>
      </g>
     </g>
     <g id="text_13">
      <!-- −20 -->
      <g transform="translate(29.495313 113.088216)scale(0.1 -0.1)">
       <use xlink:href="#DejaVuSans-2212"/>
       <use x="83.789062" xlink:href="#DejaVuSans-32"/>
       <use x="147.412109" xlink:href="#DejaVuSans-30"/>
      </g>
     </g>
    </g>
    <g id="ytick_5">
     <g id="line2d_25">
      <path clip-path="url(#p3e8e9676e5)" d="M 57.6 53.543778 
L 414.72 53.543778 
" style="fill:none;stroke:#b0b0b0;stroke-linecap:square;stroke-width:0.8;"/>
     </g>
     <g id="line2d_26">
      <g>
       <use style="stroke:#000000;stroke-width:0.8;" x="57.6" xlink:href="#md94259ba1b" y="53.543778"/>
      </g>
     </g>
     <g id="text_14">
      <!-- 0 -->
      <g transform="translate(44.2375 57.342997)scale(0.1 -0.1)">
       <use xlink:href="#DejaVuSans-30"/>
      </g>
     </g>
    </g>
    <g id="text_15">
     <!-- [dB] -->
     <g transform="translate(23.415625 185.03425)rotate(-90)scale(0.1 -0.1)">
      <defs>
       <path d="M 2906 2969 
L 2906 4863 
L 3481 4863 
L 3481 0 
L 2906 0 
L 2906 525 
Q 2725 213 2448 61 
Q 2172 -91 1784 -91 
Q 1150 -91 751 415 
Q 353 922 353 1747 
Q 353 2572 751 3078 
Q 1150 3584 1784 3584 
Q 2172 3584 2448 3432 
Q 2725 3281 2906 2969 
z
M 947 1747 
Q 947 1113 1208 752 
Q 1469 391 1925 391 
Q 2381 391 2643 752 
Q 2906 1113 2906 1747 
Q 2906 2381 2643 2742 
Q 2381 3103 1925 3103 
Q 1469 3103 1208 2742 
Q 947 2381 947 1747 
z
" id="DejaVuSans-64" transform="scale(0.015625)"/>
       <path d="M 1259 2228 
L 1259 519 
L 2272 519 
Q 2781 519 3026 730 
Q 3272 941 3272 1375 
Q 3272 1813 3026 2020 
Q 2781 2228 2272 2228 
L 1259 2228 
z
M 1259 4147 
L 1259 2741 
L 2194 2741 
Q 2656 2741 2882 2914 
Q 3109 3088 3109 3444 
Q 3109 3797 2882 3972 
Q 2656 4147 2194 4147 
L 1259 4147 
z
M 628 4666 
L 2241 4666 
Q 2963 4666 3353 4366 
Q 3744 4066 3744 3513 
Q 3744 3084 3544 2831 
Q 3344 2578 2956 2516 
Q 3422 2416 3680 2098 
Q 3938 1781 3938 1306 
Q 3938 681 3513 340 
Q 3088 0 2303 0 
L 628 0 
L 628 4666 
z
" id="DejaVuSans-42" transform="scale(0.015625)"/>
      </defs>
      <use xlink:href="#DejaVuSans-5b"/>
      <use x="39.013672" xlink:href="#DejaVuSans-64"/>
      <use x="102.490234" xlink:href="#DejaVuSans-42"/>
      <use x="171.09375" xlink:href="#DejaVuSans-5d"/>
     </g>
    </g>
   </g>
   <g id="line2d_27">
    <path clip-path="url(#p3e8e9676e5)" d="M 73.832727 295.488 
L 78.607059 291.15718 
L 83.38139 286.668734 
L 88.155722 282.008772 
L 92.930053 277.169897 
L 97.704385 272.130863 
L 102.478717 266.870349 
L 107.253048 261.383736 
L 112.02738 255.634227 
L 116.801711 249.598799 
L 121.576043 243.236594 
L 126.350374 236.527234 
L 131.124706 229.407564 
L 135.899037 221.830859 
L 140.673369 220.779436 
L 145.447701 203.998453 
L 150.222032 194.182207 
L 154.996364 187.21747 
L 159.770695 173.669261 
L 164.545027 160.620241 
L 169.319358 145.945789 
L 174.09369 128.620742 
L 178.868021 106.762458 
L 183.642353 77.811564 
L 188.416684 53.811562 
L 193.191016 54.032882 
L 197.965348 53.836053 
L 202.739679 55.694368 
L 207.514011 54.887732 
L 212.288342 53.665131 
L 217.062674 56.638604 
L 221.837005 55.483617 
L 226.611337 61.80134 
L 231.385668 90.532976 
L 236.16 111.572244 
L 240.934332 127.567974 
L 245.708663 140.987749 
L 250.482995 150.803995 
L 255.257326 160.620241 
L 260.031658 167.584978 
L 264.805989 177.401224 
L 269.580321 181.8152 
L 274.354652 187.21747 
L 279.128984 194.182207 
L 283.903316 203.998453 
L 288.677647 203.998453 
L 293.451979 203.998453 
L 298.22631 203.998453 
L 303.000642 220.779436 
L 307.774973 220.779436 
L 312.549305 220.779436 
L 317.323636 222.861331 
L 322.097968 225.305035 
L 326.872299 227.548063 
L 331.646631 229.605452 
L 336.420963 231.485823 
L 341.195294 233.202999 
L 345.969626 234.756301 
L 350.743957 236.163446 
L 355.518289 237.425223 
L 360.29262 238.54367 
L 365.066952 239.531754 
L 369.841283 240.387126 
L 374.615615 241.116293 
L 379.389947 241.718164 
L 384.164278 242.194248 
L 388.93861 242.548631 
L 393.712941 242.787801 
L 398.487273 242.90224 
" style="fill:none;stroke:#1f77b4;stroke-linecap:square;stroke-width:1.5;"/>
   </g>
   <g id="line2d_28">
    <path clip-path="url(#p3e8e9676e5)" d="M 73.832727 284.276774 
L 78.607059 279.107718 
L 83.38139 273.716225 
L 88.155722 268.103602 
L 92.930053 262.213869 
L 97.704385 256.046319 
L 102.478717 249.559026 
L 107.253048 242.709811 
L 112.02738 235.460748 
L 116.801711 227.757089 
L 121.576043 220.779436 
L 126.350374 203.998453 
L 131.124706 203.998453 
L 135.899037 194.182207 
L 140.673369 177.401224 
L 145.447701 165.034217 
L 150.222032 150.803995 
L 154.996364 133.359687 
L 159.770695 111.307653 
L 164.545027 80.384324 
L 169.319358 53.713843 
L 174.09369 56.915291 
L 178.868021 53.640812 
L 183.642353 55.196798 
L 188.416684 55.694368 
L 193.191016 53.713843 
L 197.965348 54.20643 
L 202.739679 53.568 
L 207.514011 67.195098 
L 212.288342 93.245427 
L 217.062674 112.940396 
L 221.837005 128.620742 
L 226.611337 140.987749 
L 231.385668 150.803995 
L 236.16 160.620241 
L 240.934332 167.584978 
L 245.708663 177.401224 
L 250.482995 181.8152 
L 255.257326 187.21747 
L 260.031658 194.182207 
L 264.805989 194.182207 
L 269.580321 203.998453 
L 274.354652 203.998453 
L 279.128984 203.998453 
L 283.903316 220.779436 
L 288.677647 220.779436 
L 293.451979 220.779436 
L 298.22631 220.779436 
L 303.000642 221.813166 
L 307.774973 223.800096 
L 312.549305 225.595715 
L 317.323636 227.211015 
L 322.097968 228.651902 
L 326.872299 229.931834 
L 331.646631 231.056394 
L 336.420963 232.026805 
L 341.195294 232.853668 
L 345.969626 233.541034 
L 350.743957 234.084353 
L 355.518289 234.494663 
L 360.29262 234.773557 
L 365.066952 234.916388 
L 369.841283 234.929415 
L 374.615615 234.812427 
L 379.389947 234.563016 
L 384.164278 234.181016 
L 388.93861 233.668509 
L 393.712941 233.017668 
L 398.487273 232.227975 
" style="fill:none;stroke:#ff7f0e;stroke-linecap:square;stroke-width:1.5;"/>
   </g>
   <g id="line2d_29">
    <path clip-path="url(#p3e8e9676e5)" d="M 73.832727 295.334823 
L 78.607059 290.796554 
L 83.38139 286.094014 
L 88.155722 281.211312 
L 92.930053 276.140365 
L 97.704385 270.852743 
L 102.478717 265.343451 
L 107.253048 259.586818 
L 112.02738 253.55069 
L 116.801711 247.212596 
L 121.576043 240.529023 
L 126.350374 233.467324 
L 131.124706 225.973792 
L 135.899037 220.779436 
L 140.673369 203.998453 
L 145.447701 203.998453 
L 150.222032 187.21747 
L 154.996364 177.401224 
L 159.770695 167.584978 
L 164.545027 152.187791 
L 169.319358 136.129544 
L 174.09369 115.304208 
L 178.868021 87.993374 
L 183.642353 54.709249 
L 188.416684 57.195176 
L 193.191016 54.506867 
L 197.965348 54.181562 
L 202.739679 55.987179 
L 207.514011 54.633157 
L 212.288342 53.616517 
L 217.062674 54.356182 
L 221.837005 54.734666 
L 226.611337 76.216135 
L 231.385668 99.311888 
L 236.16 116.908095 
L 240.934332 130.874446 
L 245.708663 142.850964 
L 250.482995 152.187791 
L 255.257326 160.620241 
L 260.031658 167.584978 
L 264.805989 173.669261 
L 269.580321 181.8152 
L 274.354652 187.21747 
L 279.128984 194.182207 
L 283.903316 194.182207 
L 288.677647 203.998453 
L 293.451979 203.998453 
L 298.22631 203.998453 
L 303.000642 203.998453 
L 307.774973 220.779436 
L 312.549305 220.779436 
L 317.323636 220.779436 
L 322.097968 220.779436 
L 326.872299 222.120831 
L 331.646631 223.934862 
L 336.420963 225.577998 
L 341.195294 227.05992 
L 345.969626 228.388586 
L 350.743957 229.570617 
L 355.518289 230.609001 
L 360.29262 231.508438 
L 365.066952 232.278529 
L 369.841283 232.917536 
L 374.615615 233.42647 
L 379.389947 233.817391 
L 384.164278 234.080159 
L 388.93861 234.227383 
L 393.712941 234.252711 
L 398.487273 234.155762 
" style="fill:none;stroke:#2ca02c;stroke-linecap:square;stroke-width:1.5;"/>
   </g>
   <g id="line2d_30">
    <path clip-path="url(#p3e8e9676e5)" d="M 73.832727 220.779436 
L 78.607059 220.779436 
L 83.38139 220.779436 
L 88.155722 220.779436 
L 92.930053 220.779436 
L 97.704385 220.779436 
L 102.478717 220.779436 
L 107.253048 203.998453 
L 112.02738 203.998453 
L 116.801711 203.998453 
L 121.576043 203.998453 
L 126.350374 203.998453 
L 131.124706 203.998453 
L 135.899037 203.998453 
L 140.673369 194.182207 
L 145.447701 194.182207 
L 150.222032 187.21747 
L 154.996364 181.8152 
L 159.770695 170.436487 
L 164.545027 156.888278 
L 169.319358 138.436988 
L 174.09369 112.940396 
L 178.868021 83.346128 
L 183.642353 74.894178 
L 188.416684 66.113379 
L 193.191016 64.652848 
L 197.965348 65.116949 
L 202.739679 61.030581 
L 207.514011 62.248092 
L 212.288342 69.143559 
L 217.062674 100.629756 
L 221.837005 127.567974 
L 226.611337 148.253234 
L 231.385668 165.034217 
L 236.16 181.8152 
L 240.934332 187.21747 
L 245.708663 194.182207 
L 250.482995 194.182207 
L 255.257326 194.182207 
L 260.031658 194.182207 
L 264.805989 194.182207 
L 269.580321 194.182207 
L 274.354652 194.182207 
L 279.128984 194.182207 
L 283.903316 187.21747 
L 288.677647 187.21747 
L 293.451979 187.21747 
L 298.22631 194.182207 
L 303.000642 194.182207 
L 307.774973 194.182207 
L 312.549305 194.182207 
L 317.323636 194.182207 
L 322.097968 194.182207 
L 326.872299 194.182207 
L 331.646631 194.182207 
L 336.420963 194.182207 
L 341.195294 194.182207 
L 345.969626 194.182207 
L 350.743957 194.182207 
L 355.518289 194.182207 
L 360.29262 194.182207 
L 365.066952 194.182207 
L 369.841283 194.182207 
L 374.615615 194.182207 
L 379.389947 194.182207 
L 384.164278 194.182207 
L 388.93861 194.182207 
L 393.712941 194.182207 
L 398.487273 194.182207 
" style="fill:none;stroke:#d62728;stroke-linecap:square;stroke-width:1.5;"/>
   </g>
   <g id="patch_3">
    <path d="M 57.6 307.584 
L 57.6 41.472 
" style="fill:none;stroke:#000000;stroke-linecap:square;stroke-linejoin:miter;stroke-width:0.8;"/>
   </g>
   <g id="patch_4">
    <path d="M 414.72 307.584 
L 414.72 41.472 
" style="fill:none;stroke:#000000;stroke-linecap:square;stroke-linejoin:miter;stroke-width:0.8;"/>
   </g>
   <g id="patch_5">
    <path d="M 57.6 307.584 
L 414.72 307.584 
" style="fill:none;stroke:#000000;stroke-linecap:square;stroke-linejoin:miter;stroke-width:0.8;"/>
   </g>
   <g id="patch_6">
    <path d="M 57.6 41.472 
L 414.72 41.472 
" style="fill:none;stroke:#000000;stroke-linecap:square;stroke-linejoin:miter;stroke-width:0.8;"/>
   </g>
   <g id="legend_1">
    <g id="patch_7">
     <path d="M 153.290312 302.584 
L 407.72 302.584 
Q 409.72 302.584 409.72 300.584 
L 409.72 242.8715 
Q 409.72 240.8715 407.72 240.8715 
L 153.290312 240.8715 
Q 151.290312 240.8715 151.290312 242.8715 
L 151.290312 300.584 
Q 151.290312 302.584 153.290312 302.584 
z
" style="fill:#ffffff;opacity:0.8;stroke:#cccccc;stroke-linejoin:miter;"/>
    </g>
    <g id="line2d_31">
     <path d="M 155.290312 248.969937 
L 175.290312 248.969937 
" style="fill:none;stroke:#1f77b4;stroke-linecap:square;stroke-width:1.5;"/>
    </g>
    <g id="line2d_32"/>
    <g id="text_16">
     <!-- Theoretical schematic -->
     <g transform="translate(183.290312 252.469937)scale(0.1 -0.1)">
      <defs>
       <path d="M -19 4666 
L 3928 4666 
L 3928 4134 
L 2272 4134 
L 2272 0 
L 1638 0 
L 1638 4134 
L -19 4134 
L -19 4666 
z
" id="DejaVuSans-54" transform="scale(0.015625)"/>
       <path d="M 1959 3097 
Q 1497 3097 1228 2736 
Q 959 2375 959 1747 
Q 959 1119 1226 758 
Q 1494 397 1959 397 
Q 2419 397 2687 759 
Q 2956 1122 2956 1747 
Q 2956 2369 2687 2733 
Q 2419 3097 1959 3097 
z
M 1959 3584 
Q 2709 3584 3137 3096 
Q 3566 2609 3566 1747 
Q 3566 888 3137 398 
Q 2709 -91 1959 -91 
Q 1206 -91 779 398 
Q 353 888 353 1747 
Q 353 2609 779 3096 
Q 1206 3584 1959 3584 
z
" id="DejaVuSans-6f" transform="scale(0.015625)"/>
       <path d="M 1172 4494 
L 1172 3500 
L 2356 3500 
L 2356 3053 
L 1172 3053 
L 1172 1153 
Q 1172 725 1289 603 
Q 1406 481 1766 481 
L 2356 481 
L 2356 0 
L 1766 0 
Q 1100 0 847 248 
Q 594 497 594 1153 
L 594 3053 
L 172 3053 
L 172 3500 
L 594 3500 
L 594 4494 
L 1172 4494 
z
" id="DejaVuSans-74" transform="scale(0.015625)"/>
       <path d="M 603 3500 
L 1178 3500 
L 1178 0 
L 603 0 
L 603 3500 
z
M 603 4863 
L 1178 4863 
L 1178 4134 
L 603 4134 
L 603 4863 
z
" id="DejaVuSans-69" transform="scale(0.015625)"/>
       <path d="M 2194 1759 
Q 1497 1759 1228 1600 
Q 959 1441 959 1056 
Q 959 750 1161 570 
Q 1363 391 1709 391 
Q 2188 391 2477 730 
Q 2766 1069 2766 1631 
L 2766 1759 
L 2194 1759 
z
M 3341 1997 
L 3341 0 
L 2766 0 
L 2766 531 
Q 2569 213 2275 61 
Q 1981 -91 1556 -91 
Q 1019 -91 701 211 
Q 384 513 384 1019 
Q 384 1609 779 1909 
Q 1175 2209 1959 2209 
L 2766 2209 
L 2766 2266 
Q 2766 2663 2505 2880 
Q 2244 3097 1772 3097 
Q 1472 3097 1187 3025 
Q 903 2953 641 2809 
L 641 3341 
Q 956 3463 1253 3523 
Q 1550 3584 1831 3584 
Q 2591 3584 2966 3190 
Q 3341 2797 3341 1997 
z
" id="DejaVuSans-61" transform="scale(0.015625)"/>
       <path d="M 603 4863 
L 1178 4863 
L 1178 0 
L 603 0 
L 603 4863 
z
" id="DejaVuSans-6c" transform="scale(0.015625)"/>
       <path d="M 2834 3397 
L 2834 2853 
Q 2591 2978 2328 3040 
Q 2066 3103 1784 3103 
Q 1356 3103 1142 2972 
Q 928 2841 928 2578 
Q 928 2378 1081 2264 
Q 1234 2150 1697 2047 
L 1894 2003 
Q 2506 1872 2764 1633 
Q 3022 1394 3022 966 
Q 3022 478 2636 193 
Q 2250 -91 1575 -91 
Q 1294 -91 989 -36 
Q 684 19 347 128 
L 347 722 
Q 666 556 975 473 
Q 1284 391 1588 391 
Q 1994 391 2212 530 
Q 2431 669 2431 922 
Q 2431 1156 2273 1281 
Q 2116 1406 1581 1522 
L 1381 1569 
Q 847 1681 609 1914 
Q 372 2147 372 2553 
Q 372 3047 722 3315 
Q 1072 3584 1716 3584 
Q 2034 3584 2315 3537 
Q 2597 3491 2834 3397 
z
" id="DejaVuSans-73" transform="scale(0.015625)"/>
       <path d="M 3328 2828 
Q 3544 3216 3844 3400 
Q 4144 3584 4550 3584 
Q 5097 3584 5394 3201 
Q 5691 2819 5691 2113 
L 5691 0 
L 5113 0 
L 5113 2094 
Q 5113 2597 4934 2840 
Q 4756 3084 4391 3084 
Q 3944 3084 3684 2787 
Q 3425 2491 3425 1978 
L 3425 0 
L 2847 0 
L 2847 2094 
Q 2847 2600 2669 2842 
Q 2491 3084 2119 3084 
Q 1678 3084 1418 2786 
Q 1159 2488 1159 1978 
L 1159 0 
L 581 0 
L 581 3500 
L 1159 3500 
L 1159 2956 
Q 1356 3278 1631 3431 
Q 1906 3584 2284 3584 
Q 2666 3584 2933 3390 
Q 3200 3197 3328 2828 
z
" id="DejaVuSans-6d" transform="scale(0.015625)"/>
      </defs>
      <use xlink:href="#DejaVuSans-54"/>
      <use x="61.083984" xlink:href="#DejaVuSans-68"/>
      <use x="124.462891" xlink:href="#DejaVuSans-65"/>
      <use x="185.986328" xlink:href="#DejaVuSans-6f"/>
      <use x="247.167969" xlink:href="#DejaVuSans-72"/>
      <use x="286.03125" xlink:href="#DejaVuSans-65"/>
      <use x="347.554688" xlink:href="#DejaVuSans-74"/>
      <use x="386.763672" xlink:href="#DejaVuSans-69"/>
      <use x="414.546875" xlink:href="#DejaVuSans-63"/>
      <use x="469.527344" xlink:href="#DejaVuSans-61"/>
      <use x="530.806641" xlink:href="#DejaVuSans-6c"/>
      <use x="558.589844" xlink:href="#DejaVuSans-20"/>
      <use x="590.376953" xlink:href="#DejaVuSans-73"/>
      <use x="642.476562" xlink:href="#DejaVuSans-63"/>
      <use x="697.457031" xlink:href="#DejaVuSans-68"/>
      <use x="760.835938" xlink:href="#DejaVuSans-65"/>
      <use x="822.359375" xlink:href="#DejaVuSans-6d"/>
      <use x="919.771484" xlink:href="#DejaVuSans-61"/>
      <use x="981.050781" xlink:href="#DejaVuSans-74"/>
      <use x="1020.259766" xlink:href="#DejaVuSans-69"/>
      <use x="1048.042969" xlink:href="#DejaVuSans-63"/>
     </g>
    </g>
    <g id="line2d_33">
     <path d="M 155.290312 263.648062 
L 175.290312 263.648062 
" style="fill:none;stroke:#ff7f0e;stroke-linecap:square;stroke-width:1.5;"/>
    </g>
    <g id="line2d_34"/>
    <g id="text_17">
     <!-- Theoretical schematic with open-end effects -->
     <g transform="translate(183.290312 267.148062)scale(0.1 -0.1)">
      <defs>
       <path d="M 269 3500 
L 844 3500 
L 1563 769 
L 2278 3500 
L 2956 3500 
L 3675 769 
L 4391 3500 
L 4966 3500 
L 4050 0 
L 3372 0 
L 2619 2869 
L 1863 0 
L 1184 0 
L 269 3500 
z
" id="DejaVuSans-77" transform="scale(0.015625)"/>
       <path d="M 1159 525 
L 1159 -1331 
L 581 -1331 
L 581 3500 
L 1159 3500 
L 1159 2969 
Q 1341 3281 1617 3432 
Q 1894 3584 2278 3584 
Q 2916 3584 3314 3078 
Q 3713 2572 3713 1747 
Q 3713 922 3314 415 
Q 2916 -91 2278 -91 
Q 1894 -91 1617 61 
Q 1341 213 1159 525 
z
M 3116 1747 
Q 3116 2381 2855 2742 
Q 2594 3103 2138 3103 
Q 1681 3103 1420 2742 
Q 1159 2381 1159 1747 
Q 1159 1113 1420 752 
Q 1681 391 2138 391 
Q 2594 391 2855 752 
Q 3116 1113 3116 1747 
z
" id="DejaVuSans-70" transform="scale(0.015625)"/>
       <path d="M 313 2009 
L 1997 2009 
L 1997 1497 
L 313 1497 
L 313 2009 
z
" id="DejaVuSans-2d" transform="scale(0.015625)"/>
       <path d="M 2375 4863 
L 2375 4384 
L 1825 4384 
Q 1516 4384 1395 4259 
Q 1275 4134 1275 3809 
L 1275 3500 
L 2222 3500 
L 2222 3053 
L 1275 3053 
L 1275 0 
L 697 0 
L 697 3053 
L 147 3053 
L 147 3500 
L 697 3500 
L 697 3744 
Q 697 4328 969 4595 
Q 1241 4863 1831 4863 
L 2375 4863 
z
" id="DejaVuSans-66" transform="scale(0.015625)"/>
      </defs>
      <use xlink:href="#DejaVuSans-54"/>
      <use x="61.083984" xlink:href="#DejaVuSans-68"/>
      <use x="124.462891" xlink:href="#DejaVuSans-65"/>
      <use x="185.986328" xlink:href="#DejaVuSans-6f"/>
      <use x="247.167969" xlink:href="#DejaVuSans-72"/>
      <use x="286.03125" xlink:href="#DejaVuSans-65"/>
      <use x="347.554688" xlink:href="#DejaVuSans-74"/>
      <use x="386.763672" xlink:href="#DejaVuSans-69"/>
      <use x="414.546875" xlink:href="#DejaVuSans-63"/>
      <use x="469.527344" xlink:href="#DejaVuSans-61"/>
      <use x="530.806641" xlink:href="#DejaVuSans-6c"/>
      <use x="558.589844" xlink:href="#DejaVuSans-20"/>
      <use x="590.376953" xlink:href="#DejaVuSans-73"/>
      <use x="642.476562" xlink:href="#DejaVuSans-63"/>
      <use x="697.457031" xlink:href="#DejaVuSans-68"/>
      <use x="760.835938" xlink:href="#DejaVuSans-65"/>
      <use x="822.359375" xlink:href="#DejaVuSans-6d"/>
      <use x="919.771484" xlink:href="#DejaVuSans-61"/>
      <use x="981.050781" xlink:href="#DejaVuSans-74"/>
      <use x="1020.259766" xlink:href="#DejaVuSans-69"/>
      <use x="1048.042969" xlink:href="#DejaVuSans-63"/>
      <use x="1103.023438" xlink:href="#DejaVuSans-20"/>
      <use x="1134.810547" xlink:href="#DejaVuSans-77"/>
      <use x="1216.597656" xlink:href="#DejaVuSans-69"/>
      <use x="1244.380859" xlink:href="#DejaVuSans-74"/>
      <use x="1283.589844" xlink:href="#DejaVuSans-68"/>
      <use x="1346.96875" xlink:href="#DejaVuSans-20"/>
      <use x="1378.755859" xlink:href="#DejaVuSans-6f"/>
      <use x="1439.9375" xlink:href="#DejaVuSans-70"/>
      <use x="1503.414062" xlink:href="#DejaVuSans-65"/>
      <use x="1564.9375" xlink:href="#DejaVuSans-6e"/>
      <use x="1628.316406" xlink:href="#DejaVuSans-2d"/>
      <use x="1664.400391" xlink:href="#DejaVuSans-65"/>
      <use x="1725.923828" xlink:href="#DejaVuSans-6e"/>
      <use x="1789.302734" xlink:href="#DejaVuSans-64"/>
      <use x="1852.779297" xlink:href="#DejaVuSans-20"/>
      <use x="1884.566406" xlink:href="#DejaVuSans-65"/>
      <use x="1946.089844" xlink:href="#DejaVuSans-66"/>
      <use x="1981.294922" xlink:href="#DejaVuSans-66"/>
      <use x="2016.5" xlink:href="#DejaVuSans-65"/>
      <use x="2078.023438" xlink:href="#DejaVuSans-63"/>
      <use x="2133.003906" xlink:href="#DejaVuSans-74"/>
      <use x="2172.212891" xlink:href="#DejaVuSans-73"/>
     </g>
    </g>
    <g id="line2d_35">
     <path d="M 155.290312 278.326187 
L 175.290312 278.326187 
" style="fill:none;stroke:#2ca02c;stroke-linecap:square;stroke-width:1.5;"/>
    </g>
    <g id="line2d_36"/>
    <g id="text_18">
     <!-- Tuning L1 to center the bandpass -->
     <g transform="translate(183.290312 281.826187)scale(0.1 -0.1)">
      <defs>
       <path d="M 2906 1791 
Q 2906 2416 2648 2759 
Q 2391 3103 1925 3103 
Q 1463 3103 1205 2759 
Q 947 2416 947 1791 
Q 947 1169 1205 825 
Q 1463 481 1925 481 
Q 2391 481 2648 825 
Q 2906 1169 2906 1791 
z
M 3481 434 
Q 3481 -459 3084 -895 
Q 2688 -1331 1869 -1331 
Q 1566 -1331 1297 -1286 
Q 1028 -1241 775 -1147 
L 775 -588 
Q 1028 -725 1275 -790 
Q 1522 -856 1778 -856 
Q 2344 -856 2625 -561 
Q 2906 -266 2906 331 
L 2906 616 
Q 2728 306 2450 153 
Q 2172 0 1784 0 
Q 1141 0 747 490 
Q 353 981 353 1791 
Q 353 2603 747 3093 
Q 1141 3584 1784 3584 
Q 2172 3584 2450 3431 
Q 2728 3278 2906 2969 
L 2906 3500 
L 3481 3500 
L 3481 434 
z
" id="DejaVuSans-67" transform="scale(0.015625)"/>
       <path d="M 628 4666 
L 1259 4666 
L 1259 531 
L 3531 531 
L 3531 0 
L 628 0 
L 628 4666 
z
" id="DejaVuSans-4c" transform="scale(0.015625)"/>
       <path d="M 3116 1747 
Q 3116 2381 2855 2742 
Q 2594 3103 2138 3103 
Q 1681 3103 1420 2742 
Q 1159 2381 1159 1747 
Q 1159 1113 1420 752 
Q 1681 391 2138 391 
Q 2594 391 2855 752 
Q 3116 1113 3116 1747 
z
M 1159 2969 
Q 1341 3281 1617 3432 
Q 1894 3584 2278 3584 
Q 2916 3584 3314 3078 
Q 3713 2572 3713 1747 
Q 3713 922 3314 415 
Q 2916 -91 2278 -91 
Q 1894 -91 1617 61 
Q 1341 213 1159 525 
L 1159 0 
L 581 0 
L 581 4863 
L 1159 4863 
L 1159 2969 
z
" id="DejaVuSans-62" transform="scale(0.015625)"/>
      </defs>
      <use xlink:href="#DejaVuSans-54"/>
      <use x="45.958984" xlink:href="#DejaVuSans-75"/>
      <use x="109.337891" xlink:href="#DejaVuSans-6e"/>
      <use x="172.716797" xlink:href="#DejaVuSans-69"/>
      <use x="200.5" xlink:href="#DejaVuSans-6e"/>
      <use x="263.878906" xlink:href="#DejaVuSans-67"/>
      <use x="327.355469" xlink:href="#DejaVuSans-20"/>
      <use x="359.142578" xlink:href="#DejaVuSans-4c"/>
      <use x="414.855469" xlink:href="#DejaVuSans-31"/>
      <use x="478.478516" xlink:href="#DejaVuSans-20"/>
      <use x="510.265625" xlink:href="#DejaVuSans-74"/>
      <use x="549.474609" xlink:href="#DejaVuSans-6f"/>
      <use x="610.65625" xlink:href="#DejaVuSans-20"/>
      <use x="642.443359" xlink:href="#DejaVuSans-63"/>
      <use x="697.423828" xlink:href="#DejaVuSans-65"/>
      <use x="758.947266" xlink:href="#DejaVuSans-6e"/>
      <use x="822.326172" xlink:href="#DejaVuSans-74"/>
      <use x="861.535156" xlink:href="#DejaVuSans-65"/>
      <use x="923.058594" xlink:href="#DejaVuSans-72"/>
      <use x="964.171875" xlink:href="#DejaVuSans-20"/>
      <use x="995.958984" xlink:href="#DejaVuSans-74"/>
      <use x="1035.167969" xlink:href="#DejaVuSans-68"/>
      <use x="1098.546875" xlink:href="#DejaVuSans-65"/>
      <use x="1160.070312" xlink:href="#DejaVuSans-20"/>
      <use x="1191.857422" xlink:href="#DejaVuSans-62"/>
      <use x="1255.333984" xlink:href="#DejaVuSans-61"/>
      <use x="1316.613281" xlink:href="#DejaVuSans-6e"/>
      <use x="1379.992188" xlink:href="#DejaVuSans-64"/>
      <use x="1443.46875" xlink:href="#DejaVuSans-70"/>
      <use x="1506.945312" xlink:href="#DejaVuSans-61"/>
      <use x="1568.224609" xlink:href="#DejaVuSans-73"/>
      <use x="1620.324219" xlink:href="#DejaVuSans-73"/>
     </g>
    </g>
    <g id="line2d_37">
     <path d="M 155.290312 293.004312 
L 175.290312 293.004312 
" style="fill:none;stroke:#d62728;stroke-linecap:square;stroke-width:1.5;"/>
    </g>
    <g id="line2d_38"/>
    <g id="text_19">
     <!-- Theoretical layout -->
     <g transform="translate(183.290312 296.504312)scale(0.1 -0.1)">
      <use xlink:href="#DejaVuSans-54"/>
      <use x="61.083984" xlink:href="#DejaVuSans-68"/>
      <use x="124.462891" xlink:href="#DejaVuSans-65"/>
      <use x="185.986328" xlink:href="#DejaVuSans-6f"/>
      <use x="247.167969" xlink:href="#DejaVuSans-72"/>
      <use x="286.03125" xlink:href="#DejaVuSans-65"/>
      <use x="347.554688" xlink:href="#DejaVuSans-74"/>
      <use x="386.763672" xlink:href="#DejaVuSans-69"/>
      <use x="414.546875" xlink:href="#DejaVuSans-63"/>
      <use x="469.527344" xlink:href="#DejaVuSans-61"/>
      <use x="530.806641" xlink:href="#DejaVuSans-6c"/>
      <use x="558.589844" xlink:href="#DejaVuSans-20"/>
      <use x="590.376953" xlink:href="#DejaVuSans-6c"/>
      <use x="618.160156" xlink:href="#DejaVuSans-61"/>
      <use x="679.439453" xlink:href="#DejaVuSans-79"/>
      <use x="738.619141" xlink:href="#DejaVuSans-6f"/>
      <use x="799.800781" xlink:href="#DejaVuSans-75"/>
      <use x="863.179688" xlink:href="#DejaVuSans-74"/>
     </g>
    </g>
   </g>
  </g>
 </g>
 <defs>
  <clipPath id="p3e8e9676e5">
   <rect height="266.112" width="357.12" x="57.6" y="41.472"/>
  </clipPath>
 </defs>
</svg>
